<?xml version="1.0" encoding="UTF-8"?>
<!DOCTYPE svg PUBLIC "-//W3C//DTD SVG 1.1//EN" "http://www.w3.org/Graphics/SVG/1.1/DTD/svg11.dtd">
<!-- Creator: CorelDRAW (Evaluation Version) -->
<svg xmlns="http://www.w3.org/2000/svg" xml:space="preserve" width="1039px" height="138px" version="1.1" style="shape-rendering:geometricPrecision; text-rendering:geometricPrecision; image-rendering:optimizeQuality; fill-rule:evenodd; clip-rule:evenodd"
viewBox="0 0 1052.84 140.08"
 xmlns:xlink="http://www.w3.org/1999/xlink"
 xmlns:xodm="http://www.corel.com/coreldraw/odm/2003">
 <defs>
  <style type="text/css">
   <![CDATA[
    .str0 {stroke:#FCD421;stroke-width:4.22;stroke-miterlimit:2.61313;stroke-dasharray:21.120000 12.670000}
    .str2 {stroke:#D7D7D8;stroke-width:0.91;stroke-miterlimit:2.61313;stroke-dasharray:0.910000 2.740000}
    .str1 {stroke:#FEFEFE;stroke-width:2.11;stroke-linecap:round;stroke-linejoin:round;stroke-miterlimit:2.61313;stroke-dasharray:4.220000 6.330000}
    .fil4 {fill:none}
    .fil3 {fill:#FEFEFE}
    .fil0 {fill:#D9DADA}
    .fil2 {fill:#314C7C}
    .fil7 {fill:#FCD421}
    .fil1 {fill:#FEFEFE;fill-rule:nonzero}
    .fil5 {fill:#53AFED;fill-rule:nonzero}
    .fil6 {fill:#FCD421;fill-rule:nonzero}
   ]]>
  </style>
   <clipPath id="id0">
    <path d="M503.33 42.46c0,5.92 -1.79,14.5 -3.67,18.42l-0.74 -0.01c-24.1,-4.65 -49.86,-2.18 -76,4.41 -2.1,-4.74 -4.12,-12.33 -4.74,-17.79 -1.12,-10.06 0.64,-17.62 4.91,-25.39 0.92,-1.66 1.38,-2.6 2.4,-4.04 24.01,-33.75 77.81,-17.12 77.84,24.4z"/>
   </clipPath>
   <clipPath id="id1">
    <path d="M503.33 42.46c0,5.92 -1.79,14.5 -3.67,18.42l-0.74 -0.01c-24.1,-4.65 -49.86,-2.18 -76,4.41 -2.1,-4.74 -4.12,-12.33 -4.74,-17.79 -1.12,-10.06 0.64,-17.62 4.91,-25.39 0.92,-1.66 1.38,-2.6 2.4,-4.04 24.01,-33.75 77.81,-17.12 77.84,24.4z"/>
   </clipPath>
 </defs>
 <g id="Layer_x0020_1">
  <metadata id="CorelCorpID_0Corel-Layer"/>
  <path class="fil0" d="M464.77 120.46c6.52,0 11.81,1.45 11.81,3.24 0,1.8 -5.28,3.25 -11.8,3.25 -6.52,0 -11.8,-1.45 -11.8,-3.25 -0.01,-1.79 5.28,-3.24 11.79,-3.24z"/>
  <path class="fil1" d="M542.39 138.16c-23.13,-2.87 -98.25,-11.59 -115.64,-25.04 -6.93,-5.37 -8.74,-13.68 -1.27,-19.62 2.06,-1.64 6.08,-4.81 8.82,-5.45 1.01,1.5 1.91,2.76 2.91,4.46 2.16,3.67 6.66,9.37 9.27,12.83 1.38,1.84 1.87,2.39 3.38,4l3.45 3.92c2.49,2.47 4.69,4.79 7.26,7.02 5.73,-3.84 17.04,-18.19 21.15,-24.41l4.06 -6.06c1.48,-2.31 5.69,-9.57 7.73,-13.82 -16.84,-1.72 -50.5,5.56 -61.93,8.59l-0.01 0c-4.97,1.81 -9.7,3.82 -14.07,6.01 -3.59,1.79 -6.89,3.45 -9.8,5.85 -33.02,27.23 95.12,45.69 126.58,42.53l8.11 -0.81z"/>
  <path class="fil2" d="M503.33 42.46c0,5.92 -1.79,14.5 -3.67,18.42l-0.74 -0.01c-24.1,-4.65 -49.86,-2.18 -76,4.41 -2.1,-4.74 -4.12,-12.33 -4.74,-17.79 -1.12,-10.06 0.64,-17.62 4.91,-25.39 0.92,-1.66 1.38,-2.6 2.4,-4.04 24.01,-33.75 77.81,-17.12 77.84,24.4z"/>
  <g style="clip-path:url(#id0)">
   <g id="_2385383309536">
    <path id="_1" class="fil3" d="M477.84 61.96c-1.46,0.19 -2.99,0.35 -4.32,-0.22 -1.98,-0.83 -0.6,-0.9 -3.46,-0.82l-21.29 0.72c-1.57,0.5 -0.64,1.6 -5.67,1.4l0.05 1.43 -6.35 2.54 -2.91 0.92c1.7,-0.78 3.25,-1.36 4.5,-1.62l-1.9 -0.04c-0.41,-0.79 -0.34,-2.09 -0.33,-3.27l-0.08 -1.56 -0.2 -6.25 -0.04 -1.57c-0.08,-1.34 -0.09,-2.71 -0.14,-4.06 -0.07,-1.74 -0.07,-2.03 0.49,-3.38 0.79,-0.53 0.88,-0.77 1.41,-1.61 0.77,-0.55 2.32,-2.71 2.85,-3.51 -7.15,-0.34 -5.75,-4.44 1.38,-3.74l0.91 -2.16 0.77 -1.2c2.72,-3.58 0.62,-3.29 6.19,-4.72 5.24,-1.34 14.32,-1.76 19.62,-0.55 1.03,0.23 1.23,0.39 2.3,0.55 2.44,0.38 2.16,1.88 4,3.6l0.59 1.11 1.23 2.33c2.49,-0.41 6.16,-0.97 6.19,2.17 -1.25,1 -2.37,1.16 -4.43,1.44 0.36,0.81 2.27,2.86 3.18,3.56l1.08 1.06c0.81,1.51 0.88,1.27 0.94,3.57 0.03,1.25 0.17,2.69 0.08,3.87l0.07 1.85 0.23 6.19 0 1.49 0.11 3.17 -1.41 0.29c0.82,0.28 1.59,0.55 2.33,0.81l-0.09 0.06 -8.32 -2.09 -2.06 -0.51c0.83,0.11 1.69,0.23 2.59,0.35l-0.09 -1.6zm-39.8 -12.95c-0.14,1.74 1.64,2.38 3.4,2.67 1.35,0.22 4.32,0.28 4.96,-0.85 1.42,-2.46 -5.68,-3.65 -8.36,-1.82zm42.59 -1.89c-1.74,-0.47 -3.9,-0.11 -5.46,0.57 -1.94,0.85 -2.64,2.59 -0.06,3.02 3.84,0.65 10.12,-2.36 5.52,-3.59zm-3.14 -7.5c-0.68,-2.36 -4.05,-7.79 -5.47,-8.2 -1.36,-0.38 -10.14,0.66 -12.39,0.74 -2.37,0.09 -11.55,-0.6 -12.97,0.21 -0.69,0.39 -4.67,6.7 -4.42,8.3 5.81,0.03 11.94,0.56 17.68,0.4 5.68,-0.16 11.83,-1.13 17.57,-1.45z"/>
   </g>
  </g>
  <path class="fil4" d="M503.33 42.46c0,5.92 -1.79,14.5 -3.67,18.42l-0.74 -0.01c-24.1,-4.65 -49.86,-2.18 -76,4.41 -2.1,-4.74 -4.12,-12.33 -4.74,-17.79 -1.12,-10.06 0.64,-17.62 4.91,-25.39 0.92,-1.66 1.38,-2.6 2.4,-4.04 24.01,-33.75 77.81,-17.12 77.84,24.4z"/>
  <g>
   <path class="fil4 str0" d="M425.03 76.99c22.55,-8.84 48.76,-13.23 74.67,-9.04"/>
  </g>
  <path class="fil4 str1" d="M438.18 101.79c-27.36,11.54 3.89,26.59 15.46,27.88"/>
  <path class="fil5" d="M102.17 132.95l-0.18 -87.8 -20.47 0 -30.17 50.63 -30.88 -50.63 -20.47 0 0 87.8 22.98 0 0 -45.25 22.45 36.63 11.13 0 22.62 -37.89 0.18 46.51 22.81 0 0 0zm83.49 0l25.86 0 -38.97 -87.8 -24.42 0 -38.96 87.8 25.5 0 6.82 -17.06 37.17 0 7 17.06zm-36.81 -35.37l11.31 -28.19 11.31 28.19 -22.62 0 0 0zm128.74 35.37l28.91 0 -37.89 -48.84 35.91 -38.96 -27.29 0 -34.12 36.45 0 -36.45 -24.59 0 0 87.8 24.59 0 0 -21.91 9.34 -9.87 25.14 31.78 0 0zm59.97 -19.21l0 -15.98 38.97 0 0 -18.68 -38.97 0 0 -14.72 44.35 0 0 -19.21 -68.95 0 0 87.8 70.57 0 0 -19.21 -45.97 0 0 0z"/>
  <polygon class="fil6" points="999.38,114.33 999.38,97.77 1039.93,97.77 1039.93,78.43 999.38,78.43 999.38,63.17 1045.32,63.17 1045.32,43.27 973.89,43.27 973.89,134.23 1047,134.23 1047,114.33 "/>
  <polygon class="fil5" points="591.87,137.19 591.75,77.18 577.76,77.18 557.14,111.79 536.04,77.18 522.05,77.18 522.05,137.19 537.75,137.19 537.75,106.27 553.09,131.3 560.7,131.3 576.16,105.41 576.29,137.19 591.87,137.19 "/>
  <path class="fil5" d="M736.55 134.23l27.53 0 -19.53 -28.46c11.16,-5.58 17.67,-15.44 17.67,-28.83 0,-20.83 -15.63,-33.67 -40.37,-33.67l-41.67 0 0 25.11 32.74 0 0 -7.81 25.49 16.37 -25.49 16.18 0 -7.81 -32.74 0 0 48.92 25.86 0 0 -24.18 13.95 0 16.56 24.18 0 0z"/>
  <polygon class="fil5" points="860.23,43.27 835.3,43.27 813.72,79.36 792.15,43.27 764.99,43.27 799.59,101.31 799.59,134.23 825.45,134.23 825.45,101.68 "/>
  <path class="fil5" d="M866.37 134.23l43.16 0c30.13,0 50.78,-17.48 50.78,-45.39 0,-28.09 -20.64,-45.57 -50.78,-45.57l-43.16 0 0 90.96 0 0zm25.86 -20.46l0 -50.04 16.18 0c15.44,0 25.86,9.3 25.86,25.11 0,15.63 -10.42,24.93 -25.86,24.93l-16.18 0z"/>
  <polygon class="fil5" points="668.58,75.07 648.95,75.07 632.09,98.89 615.22,75.07 594,75.07 621.19,113.37 621.19,135.11 641.25,135.11 641.25,113.62 "/>
  <path class="fil6" d="M107.81 136.34l-0.18 -87.81 -20.47 0 -30.17 50.64 -30.88 -50.64 -20.47 0 0 87.81 22.98 0 0 -45.25 22.45 36.63 11.13 0 22.63 -37.89 0.18 46.51 22.8 0 0 0zm83.49 0l25.86 0 -38.97 -87.81 -24.42 0 -38.96 87.81 25.5 0 6.82 -17.06 37.17 0 7 17.06zm-36.81 -35.38l11.31 -28.19 11.32 28.19 -22.63 0 0 0zm128.74 35.38l28.91 0 -37.89 -48.84 35.91 -38.97 -27.29 0 -34.11 36.45 0 -36.45 -24.6 0 0 87.81 24.6 0 0 -21.91 9.33 -9.88 25.14 31.79 0 0zm59.97 -19.22l0 -15.98 38.97 0 0 -18.67 -38.97 0 0 -14.73 44.35 0 0 -19.21 -68.95 0 0 87.8 70.57 0 0 -19.21 -45.97 0 0 0z"/>
  <polygon class="fil6" points="1005.22,115.5 1005.22,98.94 1045.78,98.94 1045.78,79.6 1005.22,79.6 1005.22,64.34 1051.17,64.34 1051.17,44.44 979.74,44.44 979.74,135.4 1052.84,135.4 1052.84,115.5 "/>
  <path class="fil6" d="M742.39 135.4l27.53 0 -19.53 -28.46c11.16,-5.58 17.67,-15.44 17.67,-28.83 0,-20.84 -15.62,-33.67 -40.36,-33.67l-41.67 0 0 25.11 32.74 0 0 -7.81 25.48 16.37 -25.48 16.18 0 -7.81 -32.74 0 0 48.92 25.86 0 0 -24.18 13.95 0 16.55 24.18 0 0z"/>
  <polygon class="fil6" points="866.08,44.44 841.15,44.44 819.57,80.53 797.99,44.44 770.83,44.44 805.43,102.48 805.43,135.4 831.29,135.4 831.29,102.85 "/>
  <path class="fil6" d="M872.22 135.4l43.15 0c30.14,0 50.79,-17.48 50.79,-45.39 0,-28.09 -20.65,-45.57 -50.79,-45.57l-43.15 0 0 90.96 0 0zm25.85 -20.46l0 -50.04 16.19 0c15.44,0 25.85,9.3 25.85,25.11 0,15.63 -10.41,24.93 -25.85,24.93l-16.19 0z"/>
  <polygon class="fil6" points="597.72,137.19 597.59,77.18 583.6,77.18 562.99,111.79 541.88,77.18 527.89,77.18 527.89,137.19 543.6,137.19 543.6,106.27 558.94,131.3 566.55,131.3 582.01,105.41 582.13,137.19 597.72,137.19 "/>
  <polygon class="fil6" points="674.43,75.07 654.8,75.07 637.93,98.89 621.07,75.07 599.84,75.07 627.03,113.37 627.03,135.11 647.09,135.11 647.09,113.62 "/>
  <path class="fil7" d="M503.33 42.46c0,5.92 -1.79,14.5 -3.67,18.42l-0.74 -0.01c-24.1,-4.65 -49.86,-2.18 -76,4.41 -2.1,-4.74 -4.12,-12.33 -4.74,-17.79 -1.12,-10.06 0.64,-17.62 4.91,-25.39 0.92,-1.66 1.38,-2.6 2.4,-4.04 24.01,-33.75 77.81,-17.12 77.84,24.4z"/>
  <g style="clip-path:url(#id1)">
   <g id="_2385383313280">
    <path id="_1_0" class="fil3" d="M477.84 61.96c-1.46,0.19 -2.99,0.35 -4.32,-0.22 -1.98,-0.83 -0.6,-0.9 -3.46,-0.82l-21.29 0.72c-1.57,0.5 -0.64,1.6 -5.67,1.4l0.05 1.43 -6.35 2.54 -2.91 0.92c1.7,-0.78 3.25,-1.36 4.5,-1.62l-1.9 -0.04c-0.41,-0.79 -0.34,-2.09 -0.33,-3.27l-0.08 -1.56 -0.2 -6.25 -0.04 -1.57c-0.08,-1.34 -0.09,-2.71 -0.14,-4.06 -0.07,-1.74 -0.07,-2.03 0.49,-3.38 0.79,-0.53 0.88,-0.77 1.41,-1.61 0.77,-0.55 2.32,-2.71 2.85,-3.51 -7.15,-0.34 -5.75,-4.44 1.38,-3.74l0.91 -2.16 0.77 -1.2c2.72,-3.58 0.62,-3.29 6.19,-4.72 5.24,-1.34 14.32,-1.76 19.62,-0.55 1.03,0.23 1.23,0.39 2.3,0.55 2.44,0.38 2.16,1.88 4,3.6l0.59 1.11 1.23 2.33c2.49,-0.41 6.16,-0.97 6.19,2.17 -1.25,1 -2.37,1.16 -4.43,1.44 0.36,0.81 2.27,2.86 3.18,3.56l1.08 1.06c0.81,1.51 0.88,1.27 0.94,3.57 0.03,1.25 0.17,2.69 0.08,3.87l0.07 1.85 0.23 6.19 0 1.49 0.11 3.17 -1.41 0.29c0.82,0.28 1.59,0.55 2.33,0.81l-0.09 0.06 -8.32 -2.09 -2.06 -0.51c0.83,0.11 1.69,0.23 2.59,0.35l-0.09 -1.6zm-39.8 -12.95c-0.14,1.74 1.64,2.38 3.4,2.67 1.35,0.22 4.32,0.28 4.96,-0.85 1.42,-2.46 -5.68,-3.65 -8.36,-1.82zm42.59 -1.89c-1.74,-0.47 -3.9,-0.11 -5.46,0.57 -1.94,0.85 -2.64,2.59 -0.06,3.02 3.84,0.65 10.12,-2.36 5.52,-3.59zm-3.14 -7.5c-0.68,-2.36 -4.05,-7.79 -5.47,-8.2 -1.36,-0.38 -10.14,0.66 -12.39,0.74 -2.37,0.09 -11.55,-0.6 -12.97,0.21 -0.69,0.39 -4.67,6.7 -4.42,8.3 5.81,0.03 11.94,0.56 17.68,0.4 5.68,-0.16 11.83,-1.13 17.57,-1.45z"/>
   </g>
  </g>
  <path class="fil4" d="M503.33 42.46c0,5.92 -1.79,14.5 -3.67,18.42l-0.74 -0.01c-24.1,-4.65 -49.86,-2.18 -76,4.41 -2.1,-4.74 -4.12,-12.33 -4.74,-17.79 -1.12,-10.06 0.64,-17.62 4.91,-25.39 0.92,-1.66 1.38,-2.6 2.4,-4.04 24.01,-33.75 77.81,-17.12 77.84,24.4z"/>
  <path class="fil6 str2" d="M544.45 138.48c-23.14,-2.86 -98.25,-11.58 -115.65,-25.04 -6.93,-5.36 -8.73,-13.67 -1.27,-19.61 2.07,-1.65 6.09,-4.82 8.82,-5.46 1.01,1.51 1.91,2.76 2.91,4.46 2.16,3.67 6.67,9.37 9.27,12.84 1.38,1.83 1.87,2.39 3.38,3.99l3.45 3.92c2.49,2.47 4.69,4.79 7.26,7.02 5.73,-3.84 17.04,-18.18 21.16,-24.41l4.05 -6.06c1.49,-2.31 5.7,-9.57 7.74,-13.82 -16.84,-1.72 -50.51,5.57 -61.94,8.6l-0.01 0c-4.97,1.81 -9.7,3.81 -14.07,6 -3.59,1.79 -6.89,3.45 -9.8,5.85 -33.02,27.24 95.13,45.69 126.58,42.53l8.12 -0.81z"/>
 </g>
</svg>
