<?xml version="1.0" encoding="UTF-8"?>
<!DOCTYPE svg PUBLIC "-//W3C//DTD SVG 1.1//EN" "http://www.w3.org/Graphics/SVG/1.1/DTD/svg11.dtd">
<!-- Creator: CorelDRAW (Evaluation Version) -->
<svg xmlns="http://www.w3.org/2000/svg" xml:space="preserve" width="1039px" height="138px" version="1.1" style="shape-rendering:geometricPrecision; text-rendering:geometricPrecision; image-rendering:optimizeQuality; fill-rule:evenodd; clip-rule:evenodd"
viewBox="0 0 1007.07 133.27"
 xmlns:xlink="http://www.w3.org/1999/xlink"
 xmlns:xodm="http://www.corel.com/coreldraw/odm/2003">
 <defs>
  <style type="text/css">
   <![CDATA[
    .str0 {stroke:#2B2A29;stroke-width:4.04;stroke-miterlimit:2.61313;stroke-dasharray:20.190000 12.120000}
    .str2 {stroke:#FEFEFE;stroke-width:4.04;stroke-miterlimit:2.61313;stroke-dasharray:20.200000 12.120000}
    .str1 {stroke:#FEFEFE;stroke-width:2.02;stroke-linecap:round;stroke-linejoin:round;stroke-miterlimit:2.61313;stroke-dasharray:4.040000 6.060000}
    .fil4 {fill:none}
    .fil3 {fill:#FEFEFE}
    .fil0 {fill:#D9DADA}
    .fil2 {fill:#53AFED}
    .fil7 {fill:#FEFEFE;fill-rule:nonzero}
    .fil6 {fill:#2B4173;fill-rule:nonzero}
    .fil1 {fill:#314C7C;fill-rule:nonzero}
    .fil5 {fill:#53AFED;fill-rule:nonzero}
   ]]>
  </style>
   <clipPath id="id0">
    <path d="M481.45 40.62c0,5.66 -1.71,13.86 -3.51,17.61l-0.71 -0.01c-23.06,-4.45 -47.69,-2.08 -72.69,4.22 -2.02,-4.53 -3.95,-11.79 -4.54,-17.01 -1.07,-9.62 0.61,-16.86 4.7,-24.29 0.87,-1.59 1.32,-2.49 2.29,-3.86 22.97,-32.28 74.43,-16.38 74.46,23.34z"/>
   </clipPath>
   <clipPath id="id1">
    <path d="M481.45 40.62c0,5.66 -1.71,13.86 -3.51,17.61l-0.71 -0.01c-23.06,-4.45 -47.69,-2.08 -72.69,4.22 -2.02,-4.53 -3.95,-11.79 -4.54,-17.01 -1.07,-9.62 0.61,-16.86 4.7,-24.29 0.87,-1.59 1.32,-2.49 2.29,-3.86 22.97,-32.28 74.43,-16.38 74.46,23.34z"/>
   </clipPath>
 </defs>
 <g id="Layer_x0020_1">
  <metadata id="CorelCorpID_0Corel-Layer"/>
  <path class="fil0" d="M444.57 115.22c6.23,0 11.29,1.39 11.29,3.11 0,1.71 -5.05,3.1 -11.29,3.1 -6.23,0 -11.28,-1.39 -11.29,-3.1 0,-1.72 5.05,-3.11 11.29,-3.11z"/>
  <path class="fil1" d="M518.81 132.15c-22.13,-2.74 -93.97,-11.08 -110.62,-23.95 -6.62,-5.13 -8.35,-13.08 -1.21,-18.76 1.98,-1.57 5.82,-4.61 8.44,-5.22 0.96,1.44 1.83,2.64 2.78,4.26 2.07,3.51 6.38,8.97 8.87,12.29 1.32,1.75 1.79,2.28 3.23,3.82l3.3 3.75c2.39,2.36 4.49,4.58 6.94,6.71 5.49,-3.67 16.31,-17.39 20.24,-23.35l3.88 -5.8c1.42,-2.2 5.45,-9.15 7.4,-13.22 -16.11,-1.64 -48.31,5.33 -59.24,8.23l-0.01 0c-4.76,1.73 -9.28,3.65 -13.46,5.74 -3.44,1.72 -6.59,3.3 -9.37,5.6 -31.59,26.05 90.98,43.7 121.08,40.68l7.75 -0.78z"/>
  <path class="fil2" d="M481.45 40.62c0,5.66 -1.71,13.86 -3.51,17.61l-0.71 -0.01c-23.06,-4.45 -47.69,-2.08 -72.69,4.22 -2.02,-4.53 -3.95,-11.79 -4.54,-17.01 -1.07,-9.62 0.61,-16.86 4.7,-24.29 0.87,-1.59 1.32,-2.49 2.29,-3.86 22.97,-32.28 74.43,-16.38 74.46,23.34z"/>
  <g style="clip-path:url(#id0)">
   <g id="_2385374701504">
    <path id="_1" class="fil3" d="M457.07 59.26c-1.4,0.19 -2.86,0.34 -4.13,-0.2 -1.9,-0.8 -0.58,-0.87 -3.31,-0.78l-20.36 0.68c-1.51,0.48 -0.62,1.53 -5.44,1.34l0.05 1.37 -6.07 2.43 -2.78 0.87c1.63,-0.74 3.11,-1.29 4.3,-1.54l-1.81 -0.04c-0.39,-0.76 -0.33,-2 -0.32,-3.13l-0.08 -1.49 -0.19 -5.97 -0.03 -1.51c-0.08,-1.29 -0.09,-2.6 -0.14,-3.89 -0.06,-1.66 -0.07,-1.93 0.47,-3.23 0.75,-0.51 0.84,-0.73 1.34,-1.53 0.75,-0.54 2.23,-2.6 2.73,-3.36 -6.84,-0.33 -5.5,-4.25 1.32,-3.58l0.87 -2.07 0.74 -1.15c2.6,-3.42 0.6,-3.14 5.92,-4.51 5.02,-1.29 13.69,-1.68 18.77,-0.53 0.99,0.22 1.18,0.37 2.2,0.53 2.33,0.36 2.07,1.79 3.83,3.44l0.56 1.06 1.18 2.23c2.38,-0.39 5.89,-0.92 5.91,2.08 -1.19,0.95 -2.27,1.11 -4.23,1.38 0.34,0.77 2.17,2.73 3.04,3.4l1.03 1.02c0.78,1.44 0.84,1.21 0.9,3.41 0.03,1.19 0.16,2.57 0.07,3.7l0.08 1.77 0.21 5.92 0.01 1.43 0.1 3.02 -1.35 0.29c0.78,0.26 1.52,0.52 2.23,0.77l-0.09 0.06 -7.95 -2 -1.97 -0.49c0.79,0.11 1.62,0.22 2.47,0.33l-0.08 -1.53zm-38.07 -12.38c-0.14,1.66 1.57,2.27 3.25,2.55 1.29,0.22 4.13,0.27 4.75,-0.81 1.35,-2.35 -5.44,-3.49 -8,-1.74zm40.73 -1.81c-1.66,-0.44 -3.72,-0.1 -5.22,0.55 -1.85,0.81 -2.52,2.47 -0.05,2.89 3.67,0.62 9.68,-2.26 5.27,-3.44zm-3 -7.17c-0.65,-2.26 -3.87,-7.45 -5.23,-7.84 -1.3,-0.37 -9.7,0.62 -11.85,0.7 -2.27,0.09 -11.05,-0.57 -12.41,0.2 -0.66,0.38 -4.47,6.41 -4.22,7.94 5.55,0.03 11.41,0.53 16.9,0.38 5.44,-0.15 11.32,-1.08 16.81,-1.38z"/>
   </g>
  </g>
  <path class="fil4" d="M481.45 40.62c0,5.66 -1.71,13.86 -3.51,17.61l-0.71 -0.01c-23.06,-4.45 -47.69,-2.08 -72.69,4.22 -2.02,-4.53 -3.95,-11.79 -4.54,-17.01 -1.07,-9.62 0.61,-16.86 4.7,-24.29 0.87,-1.59 1.32,-2.49 2.29,-3.86 22.97,-32.28 74.43,-16.38 74.46,23.34z"/>
  <g>
   <path class="fil4 str0" d="M406.55 73.65c21.57,-8.46 46.65,-12.66 71.43,-8.66"/>
  </g>
  <path class="fil4 str1" d="M419.13 97.37c-26.17,11.03 3.72,25.43 14.79,26.66"/>
  <path class="fil5" d="M97.72 127.17l-0.17 -83.99 -19.58 0 -28.85 48.44 -29.54 -48.44 -19.58 0 0 83.99 21.98 0 0 -43.28 21.47 35.04 10.65 0 21.64 -36.24 0.17 44.48 21.81 0 0 0zm79.87 0l24.73 0 -37.27 -83.99 -23.36 0 -37.27 83.99 24.39 0 6.53 -16.32 35.55 0 6.7 16.32zm-35.21 -33.84l10.82 -26.96 10.82 26.96 -21.64 0 0 0zm123.14 33.84l27.65 0 -36.23 -46.72 34.34 -37.27 -26.1 0 -32.63 34.87 0 -34.87 -23.53 0 0 83.99 23.53 0 0 -20.95 8.93 -9.45 24.04 30.4 0 0zm57.37 -18.38l0 -15.28 37.27 0 0 -17.87 -37.27 0 0 -14.08 42.42 0 0 -18.38 -65.95 0 0 83.99 67.49 0 0 -18.38 -43.96 0 0 0z"/>
  <polygon class="fil5" points="955.93,109.36 955.93,93.52 994.72,93.52 994.72,75.02 955.93,75.02 955.93,60.43 999.88,60.43 999.88,41.39 931.55,41.39 931.55,128.4 1001.48,128.4 1001.48,109.36 "/>
  <polygon class="fil5" points="566.14,131.23 566.02,73.83 552.64,73.83 532.92,106.93 512.73,73.83 499.35,73.83 499.35,131.23 514.38,131.23 514.38,101.65 529.05,125.59 536.33,125.59 551.12,100.83 551.23,131.23 566.14,131.23 "/>
  <path class="fil5" d="M704.53 128.4l26.33 0 -18.68 -27.23c10.68,-5.33 16.9,-14.76 16.9,-27.58 0,-19.92 -14.94,-32.2 -38.61,-32.2l-39.86 0 0 24.02 31.32 0 0 -7.47 24.38 15.65 -24.38 15.49 0 -7.48 -31.32 0 0 46.8 24.74 0 0 -23.13 13.34 0 15.84 23.13 0 0z"/>
  <polygon class="fil5" points="822.83,41.39 798.99,41.39 778.35,75.91 757.71,41.39 731.73,41.39 764.83,96.9 764.83,128.4 789.56,128.4 789.56,97.26 "/>
  <path class="fil5" d="M828.71 128.4l41.28 0c28.82,0 48.58,-16.73 48.58,-43.42 0,-26.87 -19.75,-43.59 -48.58,-43.59l-41.28 0 0 87.01 0 0zm24.73 -19.58l0 -47.86 15.48 0c14.77,0 24.73,8.9 24.73,24.02 0,14.95 -9.96,23.84 -24.73,23.84l-15.48 0z"/>
  <polygon class="fil5" points="639.52,71.81 620.74,71.81 604.61,94.59 588.48,71.81 568.18,71.81 594.18,108.45 594.18,129.23 613.37,129.23 613.37,108.68 "/>
  <path class="fil1" d="M103.12 130.41l-0.17 -83.99 -19.58 0 -28.85 48.44 -29.54 -48.44 -19.58 0 0 83.99 21.98 0 0 -43.28 21.47 35.03 10.65 0 21.64 -36.23 0.17 44.48 21.81 0 0 0zm79.86 0l24.74 0 -37.27 -83.99 -23.36 0 -37.27 83.99 24.39 0 6.52 -16.32 35.56 0 6.69 16.32zm-35.21 -33.84l10.83 -26.96 10.82 26.96 -21.64 0 -0.01 0zm123.15 33.84l27.65 0 -36.24 -46.72 34.35 -37.27 -26.11 0 -32.63 34.87 0 -34.87 -23.53 0 0 83.99 23.53 0 0 -20.96 8.93 -9.44 24.05 30.4 0 0zm57.36 -18.38l0 -15.29 37.27 0 0 -17.86 -37.27 0 0 -14.08 42.43 0 0 -18.38 -65.96 0 0 83.99 67.5 0 0 -18.38 -43.97 0 0 0z"/>
  <polygon class="fil1" points="961.52,110.48 961.52,94.64 1000.31,94.64 1000.31,76.14 961.52,76.14 961.52,61.55 1005.47,61.55 1005.47,42.51 937.15,42.51 937.15,129.52 1007.07,129.52 1007.07,110.48 "/>
  <path class="fil1" d="M710.12 129.52l26.33 0 -18.68 -27.23c10.68,-5.34 16.91,-14.77 16.91,-27.58 0,-19.93 -14.95,-32.2 -38.62,-32.2l-39.86 0 0 24.02 31.32 0 0 -7.48 24.38 15.66 -24.38 15.48 0 -7.47 -31.32 0 0 46.8 24.74 0 0 -23.13 13.34 0 15.84 23.13 0 0z"/>
  <polygon class="fil1" points="828.43,42.51 804.58,42.51 783.94,77.03 763.3,42.51 737.32,42.51 770.42,98.02 770.42,129.52 795.15,129.52 795.15,98.38 "/>
  <path class="fil1" d="M834.3 129.52l41.28 0c28.83,0 48.58,-16.73 48.58,-43.42 0,-26.87 -19.75,-43.59 -48.58,-43.59l-41.28 0 0 87.01 0 0zm24.73 -19.58l0 -47.86 15.48 0c14.77,0 24.74,8.89 24.74,24.02 0,14.95 -9.97,23.84 -24.74,23.84l-15.48 0z"/>
  <polygon class="fil6" points="571.73,131.23 571.61,73.83 558.23,73.83 538.51,106.93 518.32,73.83 504.94,73.83 504.94,131.23 519.97,131.23 519.97,101.65 534.64,125.59 541.92,125.59 556.71,100.83 556.82,131.23 571.73,131.23 "/>
  <polygon class="fil6" points="645.11,71.81 626.33,71.81 610.2,94.59 594.07,71.81 573.77,71.81 599.77,108.45 599.77,129.23 618.96,129.23 618.96,108.68 "/>
  <g>
   <path class="fil4 str0" d="M406.55 73.65c21.57,-8.46 46.65,-12.66 71.43,-8.66"/>
  </g>
  <path class="fil0" d="M444.57 115.22c6.23,0 11.29,1.39 11.29,3.11 0,1.71 -5.05,3.1 -11.29,3.1 -6.23,0 -11.28,-1.39 -11.29,-3.1 0,-1.72 5.05,-3.11 11.29,-3.11z"/>
  <path class="fil7" d="M518.81 132.15c-22.13,-2.74 -93.97,-11.08 -110.62,-23.95 -6.62,-5.13 -8.35,-13.08 -1.21,-18.76 1.98,-1.57 5.82,-4.61 8.44,-5.22 0.96,1.44 1.83,2.64 2.78,4.26 2.07,3.51 6.38,8.97 8.87,12.29 1.32,1.75 1.79,2.28 3.23,3.82l3.3 3.75c2.39,2.36 4.49,4.58 6.94,6.71 5.49,-3.67 16.31,-17.39 20.24,-23.35l3.88 -5.8c1.42,-2.2 5.45,-9.15 7.4,-13.22 -16.11,-1.64 -48.31,5.33 -59.24,8.23l-0.01 0c-4.76,1.73 -9.28,3.65 -13.46,5.74 -3.44,1.72 -6.59,3.3 -9.37,5.6 -31.59,26.05 90.98,43.7 121.08,40.68l7.75 -0.78z"/>
  <path class="fil2" d="M481.45 40.62c0,5.66 -1.71,13.86 -3.51,17.61l-0.71 -0.01c-23.06,-4.45 -47.69,-2.08 -72.69,4.22 -2.02,-4.53 -3.95,-11.79 -4.54,-17.01 -1.07,-9.62 0.61,-16.86 4.7,-24.29 0.87,-1.59 1.32,-2.49 2.29,-3.86 22.97,-32.28 74.43,-16.38 74.46,23.34z"/>
  <g style="clip-path:url(#id1)">
   <g id="_2385374677984">
    <path id="_1_0" class="fil3" d="M457.07 59.26c-1.4,0.19 -2.86,0.34 -4.13,-0.2 -1.9,-0.8 -0.58,-0.87 -3.31,-0.78l-20.36 0.68c-1.51,0.48 -0.62,1.53 -5.44,1.34l0.05 1.37 -6.07 2.43 -2.78 0.87c1.63,-0.74 3.11,-1.29 4.3,-1.54l-1.81 -0.04c-0.39,-0.76 -0.33,-2 -0.32,-3.13l-0.08 -1.49 -0.19 -5.97 -0.03 -1.51c-0.08,-1.29 -0.09,-2.6 -0.14,-3.89 -0.06,-1.66 -0.07,-1.93 0.47,-3.23 0.75,-0.51 0.84,-0.73 1.34,-1.53 0.75,-0.54 2.23,-2.6 2.73,-3.36 -6.84,-0.33 -5.5,-4.25 1.32,-3.58l0.87 -2.07 0.74 -1.15c2.6,-3.42 0.6,-3.14 5.92,-4.51 5.02,-1.29 13.69,-1.68 18.77,-0.53 0.99,0.22 1.18,0.37 2.2,0.53 2.33,0.36 2.07,1.79 3.83,3.44l0.56 1.06 1.18 2.23c2.38,-0.39 5.89,-0.92 5.91,2.08 -1.19,0.95 -2.27,1.11 -4.23,1.38 0.34,0.77 2.17,2.73 3.04,3.4l1.03 1.02c0.78,1.44 0.84,1.21 0.9,3.41 0.03,1.19 0.16,2.57 0.07,3.7l0.08 1.77 0.21 5.92 0.01 1.43 0.1 3.02 -1.35 0.29c0.78,0.26 1.52,0.52 2.23,0.77l-0.09 0.06 -7.95 -2 -1.97 -0.49c0.79,0.11 1.62,0.22 2.47,0.33l-0.08 -1.53zm-38.07 -12.38c-0.14,1.66 1.57,2.27 3.25,2.55 1.29,0.22 4.13,0.27 4.75,-0.81 1.35,-2.35 -5.44,-3.49 -8,-1.74zm40.73 -1.81c-1.66,-0.44 -3.72,-0.1 -5.22,0.55 -1.85,0.81 -2.52,2.47 -0.05,2.89 3.67,0.62 9.68,-2.26 5.27,-3.44zm-3 -7.17c-0.65,-2.26 -3.87,-7.45 -5.23,-7.84 -1.3,-0.37 -9.7,0.62 -11.85,0.7 -2.27,0.09 -11.05,-0.57 -12.41,0.2 -0.66,0.38 -4.47,6.41 -4.22,7.94 5.55,0.03 11.41,0.53 16.9,0.38 5.44,-0.15 11.32,-1.08 16.81,-1.38z"/>
   </g>
  </g>
  <path class="fil4" d="M481.45 40.62c0,5.66 -1.71,13.86 -3.51,17.61l-0.71 -0.01c-23.06,-4.45 -47.69,-2.08 -72.69,4.22 -2.02,-4.53 -3.95,-11.79 -4.54,-17.01 -1.07,-9.62 0.61,-16.86 4.7,-24.29 0.87,-1.59 1.32,-2.49 2.29,-3.86 22.97,-32.28 74.43,-16.38 74.46,23.34z"/>
  <g>
   <path class="fil4 str0" d="M406.55 73.65c21.57,-8.46 46.65,-12.66 71.43,-8.66"/>
  </g>
  <path class="fil4 str1" d="M419.13 97.37c-26.17,11.03 3.72,25.43 14.79,26.66"/>
  <path class="fil5" d="M97.72 127.17l-0.17 -83.99 -19.58 0 -28.85 48.44 -29.54 -48.44 -19.58 0 0 83.99 21.98 0 0 -43.28 21.47 35.04 10.65 0 21.64 -36.24 0.17 44.48 21.81 0 0 0zm79.87 0l24.73 0 -37.27 -83.99 -23.36 0 -37.27 83.99 24.39 0 6.53 -16.32 35.55 0 6.7 16.32zm-35.21 -33.84l10.82 -26.96 10.82 26.96 -21.64 0 0 0zm123.14 33.84l27.65 0 -36.23 -46.72 34.34 -37.27 -26.1 0 -32.63 34.87 0 -34.87 -23.53 0 0 83.99 23.53 0 0 -20.95 8.93 -9.45 24.04 30.4 0 0zm57.37 -18.38l0 -15.28 37.27 0 0 -17.87 -37.27 0 0 -14.08 42.42 0 0 -18.38 -65.95 0 0 83.99 67.49 0 0 -18.38 -43.96 0 0 0z"/>
  <polygon class="fil5" points="955.93,109.36 955.93,93.52 994.72,93.52 994.72,75.02 955.93,75.02 955.93,60.43 999.88,60.43 999.88,41.39 931.55,41.39 931.55,128.4 1001.48,128.4 1001.48,109.36 "/>
  <polygon class="fil5" points="566.14,131.23 566.02,73.83 552.64,73.83 532.92,106.93 512.73,73.83 499.35,73.83 499.35,131.23 514.38,131.23 514.38,101.65 529.05,125.59 536.33,125.59 551.12,100.83 551.23,131.23 566.14,131.23 "/>
  <path class="fil5" d="M704.53 128.4l26.33 0 -18.68 -27.23c10.68,-5.33 16.9,-14.76 16.9,-27.58 0,-19.92 -14.94,-32.2 -38.61,-32.2l-39.86 0 0 24.02 31.32 0 0 -7.47 24.38 15.65 -24.38 15.49 0 -7.48 -31.32 0 0 46.8 24.74 0 0 -23.13 13.34 0 15.84 23.13 0 0z"/>
  <polygon class="fil5" points="822.83,41.39 798.99,41.39 778.35,75.91 757.71,41.39 731.73,41.39 764.83,96.9 764.83,128.4 789.56,128.4 789.56,97.26 "/>
  <path class="fil5" d="M828.71 128.4l41.28 0c28.82,0 48.58,-16.73 48.58,-43.42 0,-26.87 -19.75,-43.59 -48.58,-43.59l-41.28 0 0 87.01 0 0zm24.73 -19.58l0 -47.86 15.48 0c14.77,0 24.73,8.9 24.73,24.02 0,14.95 -9.96,23.84 -24.73,23.84l-15.48 0z"/>
  <polygon class="fil5" points="639.52,71.81 620.74,71.81 604.61,94.59 588.48,71.81 568.18,71.81 594.18,108.45 594.18,129.23 613.37,129.23 613.37,108.68 "/>
  <path class="fil7" d="M103.12 130.41l-0.17 -83.99 -19.58 0 -28.85 48.44 -29.54 -48.44 -19.58 0 0 83.99 21.98 0 0 -43.28 21.47 35.03 10.65 0 21.64 -36.23 0.17 44.48 21.81 0 0 0zm79.86 0l24.74 0 -37.27 -83.99 -23.36 0 -37.27 83.99 24.39 0 6.52 -16.32 35.56 0 6.69 16.32zm-35.21 -33.84l10.83 -26.96 10.82 26.96 -21.64 0 -0.01 0zm123.15 33.84l27.65 0 -36.24 -46.72 34.35 -37.27 -26.11 0 -32.63 34.87 0 -34.87 -23.53 0 0 83.99 23.53 0 0 -20.96 8.93 -9.44 24.05 30.4 0 0zm57.36 -18.38l0 -15.29 37.27 0 0 -17.86 -37.27 0 0 -14.08 42.43 0 0 -18.38 -65.96 0 0 83.99 67.5 0 0 -18.38 -43.97 0 0 0z"/>
  <polygon class="fil7" points="961.52,110.48 961.52,94.64 1000.31,94.64 1000.31,76.14 961.52,76.14 961.52,61.55 1005.47,61.55 1005.47,42.51 937.15,42.51 937.15,129.52 1007.07,129.52 1007.07,110.48 "/>
  <path class="fil7" d="M710.12 129.52l26.33 0 -18.68 -27.23c10.68,-5.34 16.91,-14.77 16.91,-27.58 0,-19.93 -14.95,-32.2 -38.62,-32.2l-39.86 0 0 24.02 31.32 0 0 -7.48 24.38 15.66 -24.38 15.48 0 -7.47 -31.32 0 0 46.8 24.74 0 0 -23.13 13.34 0 15.84 23.13 0 0z"/>
  <polygon class="fil7" points="828.43,42.51 804.58,42.51 783.94,77.03 763.3,42.51 737.32,42.51 770.42,98.02 770.42,129.52 795.15,129.52 795.15,98.38 "/>
  <path class="fil7" d="M834.3 129.52l41.28 0c28.83,0 48.58,-16.73 48.58,-43.42 0,-26.87 -19.75,-43.59 -48.58,-43.59l-41.28 0 0 87.01 0 0zm24.73 -19.58l0 -47.86 15.48 0c14.77,0 24.74,8.89 24.74,24.02 0,14.95 -9.97,23.84 -24.74,23.84l-15.48 0z"/>
  <polygon class="fil7" points="571.73,131.23 571.61,73.83 558.23,73.83 538.51,106.93 518.32,73.83 504.94,73.83 504.94,131.23 519.97,131.23 519.97,101.65 534.64,125.59 541.92,125.59 556.71,100.83 556.82,131.23 571.73,131.23 "/>
  <polygon class="fil7" points="645.11,71.81 626.33,71.81 610.2,94.59 594.07,71.81 573.77,71.81 599.77,108.45 599.77,129.23 618.96,129.23 618.96,108.68 "/>
  <g>
   <path class="fil4 str2" d="M406.55 73.65c21.57,-8.46 46.65,-12.66 71.43,-8.66"/>
  </g>
 </g>
</svg>
