<?xml version="1.0" encoding="UTF-8"?>
<!DOCTYPE svg PUBLIC "-//W3C//DTD SVG 1.1//EN" "http://www.w3.org/Graphics/SVG/1.1/DTD/svg11.dtd">
<!-- Creator: CorelDRAW (Evaluation Version) -->
<svg xmlns="http://www.w3.org/2000/svg" xml:space="preserve" width="1039px" height="138px" version="1.1" style="shape-rendering:geometricPrecision; text-rendering:geometricPrecision; image-rendering:optimizeQuality; fill-rule:evenodd; clip-rule:evenodd"
viewBox="0 0 1014.85 134.29"
 xmlns:xlink="http://www.w3.org/1999/xlink"
 xmlns:xodm="http://www.corel.com/coreldraw/odm/2003">
 <defs>
  <style type="text/css">
   <![CDATA[
    .str0 {stroke:#2B2A29;stroke-width:4.07;stroke-miterlimit:2.61313;stroke-dasharray:20.350000 12.210000}
    .str2 {stroke:#304C7C;stroke-width:4.07;stroke-miterlimit:2.61313;stroke-dasharray:20.360000 12.220000}
    .str1 {stroke:#FEFEFE;stroke-width:2.03;stroke-linecap:round;stroke-linejoin:round;stroke-miterlimit:2.61313;stroke-dasharray:4.070000 6.100000}
    .fil4 {fill:none}
    .fil3 {fill:#FEFEFE}
    .fil0 {fill:#D9DADA}
    .fil2 {fill:#53AFED}
    .fil6 {fill:#2B4173;fill-rule:nonzero}
    .fil1 {fill:#314C7C;fill-rule:nonzero}
    .fil5 {fill:#53AFED;fill-rule:nonzero}
   ]]>
  </style>
   <clipPath id="id0">
    <path d="M485.16 40.93c0.01,5.7 -1.72,13.97 -3.53,17.75l-0.72 -0.01c-23.23,-4.48 -48.06,-2.1 -73.25,4.25 -2.03,-4.56 -3.98,-11.88 -4.57,-17.14 -1.08,-9.7 0.62,-16.99 4.73,-24.48 0.88,-1.6 1.33,-2.5 2.32,-3.89 23.13,-32.53 74.99,-16.5 75.02,23.52z"/>
   </clipPath>
   <clipPath id="id1">
    <path d="M485.16 40.93c0.01,5.7 -1.72,13.97 -3.53,17.75l-0.72 -0.01c-23.23,-4.48 -48.06,-2.1 -73.25,4.25 -2.03,-4.56 -3.98,-11.88 -4.57,-17.14 -1.08,-9.7 0.62,-16.99 4.73,-24.48 0.88,-1.6 1.33,-2.5 2.32,-3.89 23.13,-32.53 74.99,-16.5 75.02,23.52z"/>
   </clipPath>
 </defs>
 <g id="Layer_x0020_1">
  <metadata id="CorelCorpID_0Corel-Layer"/>
  <path class="fil0" d="M448 116.11c6.28,0 11.38,1.4 11.38,3.13 0,1.73 -5.09,3.13 -11.37,3.13 -6.29,0 -11.38,-1.4 -11.38,-3.13 0,-1.73 5.09,-3.13 11.37,-3.13z"/>
  <path class="fil1" d="M522.82 133.17c-22.3,-2.76 -94.7,-11.17 -111.47,-24.14 -6.68,-5.16 -8.42,-13.18 -1.22,-18.9 1.99,-1.59 5.86,-4.64 8.49,-5.26 0.98,1.45 1.85,2.66 2.81,4.3 2.08,3.53 6.43,9.03 8.94,12.37 1.33,1.77 1.8,2.3 3.25,3.86l3.33 3.77c2.4,2.38 4.52,4.62 7,6.77 5.52,-3.7 16.43,-17.53 20.39,-23.53l3.91 -5.85c1.43,-2.22 5.49,-9.22 7.45,-13.32 -16.23,-1.65 -48.68,5.37 -59.69,8.29l-0.02 0c-4.79,1.75 -9.35,3.68 -13.56,5.79 -3.46,1.73 -6.64,3.33 -9.44,5.64 -31.83,26.25 91.69,44.04 122.01,41l7.82 -0.79z"/>
  <path class="fil2" d="M485.16 40.93c0.01,5.7 -1.72,13.97 -3.53,17.75l-0.72 -0.01c-23.23,-4.48 -48.06,-2.1 -73.25,4.25 -2.03,-4.56 -3.98,-11.88 -4.57,-17.14 -1.08,-9.7 0.62,-16.99 4.73,-24.48 0.88,-1.6 1.33,-2.5 2.32,-3.89 23.13,-32.53 74.99,-16.5 75.02,23.52z"/>
  <g style="clip-path:url(#id0)">
   <g id="_2385375587200">
    <path id="_1" class="fil3" d="M460.6 59.72c-1.41,0.19 -2.88,0.34 -4.17,-0.2 -1.91,-0.81 -0.58,-0.88 -3.33,-0.79l-20.52 0.69c-1.52,0.48 -0.62,1.54 -5.47,1.34l0.05 1.38 -6.13 2.46 -2.79 0.87c1.63,-0.74 3.13,-1.3 4.33,-1.55l-1.83 -0.04c-0.39,-0.77 -0.33,-2.01 -0.32,-3.15l-0.08 -1.51 -0.19 -6.02 -0.03 -1.51c-0.09,-1.3 -0.09,-2.62 -0.14,-3.92 -0.07,-1.67 -0.07,-1.95 0.47,-3.26 0.76,-0.51 0.85,-0.74 1.36,-1.54 0.74,-0.54 2.23,-2.62 2.74,-3.39 -6.89,-0.33 -5.54,-4.28 1.33,-3.61l0.88 -2.08 0.74 -1.16c2.63,-3.44 0.61,-3.17 5.97,-4.54 5.06,-1.3 13.8,-1.7 18.92,-0.54 0.99,0.23 1.18,0.38 2.21,0.54 2.35,0.36 2.09,1.8 3.86,3.46l0.57 1.07 1.18 2.25c2.4,-0.4 5.94,-0.93 5.96,2.1 -1.19,0.95 -2.28,1.11 -4.26,1.38 0.34,0.78 2.19,2.75 3.06,3.43l1.04 1.03c0.79,1.45 0.85,1.21 0.91,3.44 0.03,1.2 0.16,2.58 0.07,3.72l0.08 1.79 0.21 5.96 0.01 1.44 0.1 3.05 -1.36 0.29c0.79,0.27 1.53,0.52 2.25,0.77l-0.09 0.06 -8.02 -2.01 -1.98 -0.49c0.8,0.11 1.63,0.22 2.49,0.33l-0.08 -1.54zm-38.36 -12.48c-0.14,1.68 1.57,2.29 3.27,2.57 1.3,0.22 4.16,0.28 4.79,-0.81 1.36,-2.38 -5.48,-3.52 -8.06,-1.76zm41.04 -1.82c-1.67,-0.45 -3.75,-0.11 -5.26,0.55 -1.87,0.82 -2.54,2.49 -0.05,2.91 3.7,0.63 9.75,-2.28 5.31,-3.46zm-3.03 -7.22c-0.65,-2.29 -3.89,-7.52 -5.27,-7.91 -1.3,-0.37 -9.77,0.63 -11.94,0.71 -2.28,0.08 -11.13,-0.58 -12.5,0.2 -0.66,0.38 -4.5,6.46 -4.26,8 5.6,0.03 11.51,0.54 17.04,0.38 5.48,-0.15 11.4,-1.08 16.93,-1.38z"/>
   </g>
  </g>
  <path class="fil4" d="M485.16 40.93c0.01,5.7 -1.72,13.97 -3.53,17.75l-0.72 -0.01c-23.23,-4.48 -48.06,-2.1 -73.25,4.25 -2.03,-4.56 -3.98,-11.88 -4.57,-17.14 -1.08,-9.7 0.62,-16.99 4.73,-24.48 0.88,-1.6 1.33,-2.5 2.32,-3.89 23.13,-32.53 74.99,-16.5 75.02,23.52z"/>
  <g>
   <path class="fil4 str0" d="M409.69 74.21c21.74,-8.52 47,-12.75 71.98,-8.72"/>
  </g>
  <path class="fil4 str1" d="M422.36 98.12c-26.36,11.12 3.75,25.63 14.91,26.87"/>
  <path class="fil5" d="M98.48 128.15l-0.17 -84.63 -19.73 0 -29.08 48.81 -29.77 -48.81 -19.73 0 0 84.63 22.15 0 0 -43.61 21.64 35.3 10.73 0 21.81 -36.51 0.17 44.82 21.98 0 0 0zm80.48 0l24.92 0 -37.56 -84.63 -23.53 0 -37.56 84.63 24.58 0 6.57 -16.44 35.83 0 6.75 16.44zm-35.48 -34.09l10.9 -27.18 10.91 27.18 -21.81 0 0 0zm124.09 34.09l27.87 0 -36.52 -47.07 34.61 -37.56 -26.3 0 -32.89 35.13 0 -35.13 -23.71 0 0 84.63 23.71 0 0 -21.11 9 -9.52 24.23 30.63 0 0zm57.81 -18.52l0 -15.4 37.56 0 0 -18 -37.56 0 0 -14.19 42.75 0 0 -18.52 -66.46 0 0 84.63 68.02 0 0 -18.52 -44.31 0 0 0z"/>
  <polygon class="fil5" points="963.31,110.2 963.31,94.25 1002.4,94.25 1002.4,75.6 963.31,75.6 963.31,60.89 1007.6,60.89 1007.6,41.71 938.75,41.71 938.75,129.39 1009.22,129.39 1009.22,110.2 "/>
  <polygon class="fil5" points="570.51,132.24 570.39,74.4 556.91,74.4 537.04,107.75 516.69,74.4 503.21,74.4 503.21,132.24 518.35,132.24 518.35,102.43 533.13,126.56 540.47,126.56 555.37,101.6 555.49,132.24 570.51,132.24 "/>
  <path class="fil5" d="M709.97 129.39l26.54 0 -18.83 -27.43c10.76,-5.38 17.03,-14.89 17.03,-27.8 0,-20.08 -15.06,-32.45 -38.91,-32.45l-40.16 0 0 24.2 31.56 0 0 -7.53 24.56 15.78 -24.56 15.6 0 -7.53 -31.56 0 0 47.16 24.92 0 0 -23.31 13.45 0 15.96 23.31 0 0z"/>
  <polygon class="fil5" points="829.19,41.71 805.16,41.71 784.36,76.49 763.56,41.71 737.38,41.71 770.73,97.65 770.73,129.39 795.66,129.39 795.66,98.01 "/>
  <path class="fil5" d="M835.11 129.39l41.6 0c29.04,0 48.95,-16.86 48.95,-43.75 0,-27.08 -19.9,-43.93 -48.95,-43.93l-41.6 0 0 87.68 0 0zm24.92 -19.72l0 -48.24 15.6 0c14.88,0 24.92,8.97 24.92,24.21 0,15.06 -10.04,24.03 -24.92,24.03l-15.6 0z"/>
  <polygon class="fil5" points="644.45,72.36 625.53,72.36 609.28,95.32 593.02,72.36 572.56,72.36 598.77,109.28 598.77,130.23 618.11,130.23 618.11,109.52 "/>
  <path class="fil1" d="M103.92 131.42l-0.18 -84.64 -19.73 0 -29.07 48.81 -29.77 -48.81 -19.73 0 0 84.64 22.15 0 0 -43.62 21.64 35.31 10.73 0 21.8 -36.52 0.18 44.83 21.98 0 0 0zm80.48 0l24.92 0 -37.56 -84.64 -23.54 0 -37.55 84.64 24.57 0 6.58 -16.45 35.83 0 6.75 16.45zm-35.48 -34.1l10.9 -27.17 10.9 27.17 -21.8 0 0 0zm124.09 34.1l27.87 0 -36.52 -47.08 34.61 -37.56 -26.31 0 -32.88 35.14 0 -35.14 -23.71 0 0 84.64 23.71 0 0 -21.12 9 -9.52 24.23 30.64 0 0zm57.81 -18.52l0 -15.41 37.56 0 0 -18 -37.56 0 0 -14.19 42.75 0 0 -18.52 -66.46 0 0 84.63 68.01 0 0 -18.51 -44.3 0 0 0z"/>
  <polygon class="fil1" points="968.95,111.33 968.95,95.37 1008.04,95.37 1008.04,76.72 968.95,76.72 968.95,62.02 1013.24,62.02 1013.24,42.83 944.38,42.83 944.38,130.52 1014.85,130.52 1014.85,111.33 "/>
  <path class="fil1" d="M715.6 130.52l26.54 0 -18.83 -27.44c10.76,-5.38 17.04,-14.88 17.04,-27.79 0,-20.08 -15.07,-32.46 -38.91,-32.46l-40.17 0 0 24.21 31.56 0 0 -7.53 24.57 15.78 -24.57 15.6 0 -7.53 -31.56 0 0 47.16 24.93 0 0 -23.31 13.44 0 15.96 23.31 0 0z"/>
  <polygon class="fil1" points="834.82,42.83 810.79,42.83 789.99,77.62 769.19,42.83 743.01,42.83 776.37,98.78 776.37,130.52 801.29,130.52 801.29,99.14 "/>
  <path class="fil1" d="M840.74 130.52l41.6 0c29.05,0 48.95,-16.86 48.95,-43.75 0,-27.08 -19.9,-43.94 -48.95,-43.94l-41.6 0 0 87.69 0 0zm24.92 -19.73l0 -48.23 15.6 0c14.89,0 24.93,8.96 24.93,24.2 0,15.07 -10.04,24.03 -24.93,24.03l-15.6 0z"/>
  <polygon class="fil6" points="576.15,132.24 576.03,74.4 562.54,74.4 542.67,107.75 522.33,74.4 508.84,74.4 508.84,132.24 523.98,132.24 523.98,102.43 538.77,126.56 546.1,126.56 561.01,101.6 561.12,132.24 576.15,132.24 "/>
  <polygon class="fil6" points="650.09,72.36 631.17,72.36 614.91,95.32 598.66,72.36 578.2,72.36 604.4,109.28 604.4,130.23 623.74,130.23 623.74,109.52 "/>
  <g>
   <path class="fil4 str0" d="M409.69 74.21c21.74,-8.52 47,-12.75 71.98,-8.72"/>
  </g>
  <path class="fil0" d="M448 116.11c6.28,0 11.38,1.4 11.38,3.13 0,1.73 -5.09,3.13 -11.37,3.13 -6.29,0 -11.38,-1.4 -11.38,-3.13 0,-1.73 5.09,-3.13 11.37,-3.13z"/>
  <path class="fil1" d="M522.82 133.17c-22.3,-2.76 -94.7,-11.17 -111.47,-24.14 -6.68,-5.16 -8.42,-13.18 -1.22,-18.9 1.99,-1.59 5.86,-4.64 8.49,-5.26 0.98,1.45 1.85,2.66 2.81,4.3 2.08,3.53 6.43,9.03 8.94,12.37 1.33,1.77 1.8,2.3 3.25,3.86l3.33 3.77c2.4,2.38 4.52,4.62 7,6.77 5.52,-3.7 16.43,-17.53 20.39,-23.53l3.91 -5.85c1.43,-2.22 5.49,-9.22 7.45,-13.32 -16.23,-1.65 -48.68,5.37 -59.69,8.29l-0.02 0c-4.79,1.75 -9.35,3.68 -13.56,5.79 -3.46,1.73 -6.64,3.33 -9.44,5.64 -31.83,26.25 91.69,44.04 122.01,41l7.82 -0.79z"/>
  <path class="fil2" d="M485.16 40.93c0.01,5.7 -1.72,13.97 -3.53,17.75l-0.72 -0.01c-23.23,-4.48 -48.06,-2.1 -73.25,4.25 -2.03,-4.56 -3.98,-11.88 -4.57,-17.14 -1.08,-9.7 0.62,-16.99 4.73,-24.48 0.88,-1.6 1.33,-2.5 2.32,-3.89 23.13,-32.53 74.99,-16.5 75.02,23.52z"/>
  <g style="clip-path:url(#id1)">
   <g id="_2385375566992">
    <path id="_1_0" class="fil3" d="M460.6 59.72c-1.41,0.19 -2.88,0.34 -4.17,-0.2 -1.91,-0.81 -0.58,-0.88 -3.33,-0.79l-20.52 0.69c-1.52,0.48 -0.62,1.54 -5.47,1.34l0.05 1.38 -6.13 2.46 -2.79 0.87c1.63,-0.74 3.13,-1.3 4.33,-1.55l-1.83 -0.04c-0.39,-0.77 -0.33,-2.01 -0.32,-3.15l-0.08 -1.51 -0.19 -6.02 -0.03 -1.51c-0.09,-1.3 -0.09,-2.62 -0.14,-3.92 -0.07,-1.67 -0.07,-1.95 0.47,-3.26 0.76,-0.51 0.85,-0.74 1.36,-1.54 0.74,-0.54 2.23,-2.62 2.74,-3.39 -6.89,-0.33 -5.54,-4.28 1.33,-3.61l0.88 -2.08 0.74 -1.16c2.63,-3.44 0.61,-3.17 5.97,-4.54 5.06,-1.3 13.8,-1.7 18.92,-0.54 0.99,0.23 1.18,0.38 2.21,0.54 2.35,0.36 2.09,1.8 3.86,3.46l0.57 1.07 1.18 2.25c2.4,-0.4 5.94,-0.93 5.96,2.1 -1.19,0.95 -2.28,1.11 -4.26,1.38 0.34,0.78 2.19,2.75 3.06,3.43l1.04 1.03c0.79,1.45 0.85,1.21 0.91,3.44 0.03,1.2 0.16,2.58 0.07,3.72l0.08 1.79 0.21 5.96 0.01 1.44 0.1 3.05 -1.36 0.29c0.79,0.27 1.53,0.52 2.25,0.77l-0.09 0.06 -8.02 -2.01 -1.98 -0.49c0.8,0.11 1.63,0.22 2.49,0.33l-0.08 -1.54zm-38.36 -12.48c-0.14,1.68 1.57,2.29 3.27,2.57 1.3,0.22 4.16,0.28 4.79,-0.81 1.36,-2.38 -5.48,-3.52 -8.06,-1.76zm41.04 -1.82c-1.67,-0.45 -3.75,-0.11 -5.26,0.55 -1.87,0.82 -2.54,2.49 -0.05,2.91 3.7,0.63 9.75,-2.28 5.31,-3.46zm-3.03 -7.22c-0.65,-2.29 -3.89,-7.52 -5.27,-7.91 -1.3,-0.37 -9.77,0.63 -11.94,0.71 -2.28,0.08 -11.13,-0.58 -12.5,0.2 -0.66,0.38 -4.5,6.46 -4.26,8 5.6,0.03 11.51,0.54 17.04,0.38 5.48,-0.15 11.4,-1.08 16.93,-1.38z"/>
   </g>
  </g>
  <path class="fil4" d="M485.16 40.93c0.01,5.7 -1.72,13.97 -3.53,17.75l-0.72 -0.01c-23.23,-4.48 -48.06,-2.1 -73.25,4.25 -2.03,-4.56 -3.98,-11.88 -4.57,-17.14 -1.08,-9.7 0.62,-16.99 4.73,-24.48 0.88,-1.6 1.33,-2.5 2.32,-3.89 23.13,-32.53 74.99,-16.5 75.02,23.52z"/>
  <g>
   <path class="fil4 str0" d="M409.69 74.21c21.74,-8.52 47,-12.75 71.98,-8.72"/>
  </g>
  <path class="fil4 str1" d="M422.36 98.12c-26.36,11.12 3.75,25.63 14.91,26.87"/>
  <path class="fil5" d="M98.48 128.15l-0.17 -84.63 -19.73 0 -29.08 48.81 -29.77 -48.81 -19.73 0 0 84.63 22.15 0 0 -43.61 21.64 35.3 10.73 0 21.81 -36.51 0.17 44.82 21.98 0 0 0zm80.48 0l24.92 0 -37.56 -84.63 -23.53 0 -37.56 84.63 24.58 0 6.57 -16.44 35.83 0 6.75 16.44zm-35.48 -34.09l10.9 -27.18 10.91 27.18 -21.81 0 0 0zm124.09 34.09l27.87 0 -36.52 -47.07 34.61 -37.56 -26.3 0 -32.89 35.13 0 -35.13 -23.71 0 0 84.63 23.71 0 0 -21.11 9 -9.52 24.23 30.63 0 0zm57.81 -18.52l0 -15.4 37.56 0 0 -18 -37.56 0 0 -14.19 42.75 0 0 -18.52 -66.46 0 0 84.63 68.02 0 0 -18.52 -44.31 0 0 0z"/>
  <polygon class="fil5" points="963.31,110.2 963.31,94.25 1002.4,94.25 1002.4,75.6 963.31,75.6 963.31,60.89 1007.6,60.89 1007.6,41.71 938.75,41.71 938.75,129.39 1009.22,129.39 1009.22,110.2 "/>
  <polygon class="fil5" points="570.51,132.24 570.39,74.4 556.91,74.4 537.04,107.75 516.69,74.4 503.21,74.4 503.21,132.24 518.35,132.24 518.35,102.43 533.13,126.56 540.47,126.56 555.37,101.6 555.49,132.24 570.51,132.24 "/>
  <path class="fil5" d="M709.97 129.39l26.54 0 -18.83 -27.43c10.76,-5.38 17.03,-14.89 17.03,-27.8 0,-20.08 -15.06,-32.45 -38.91,-32.45l-40.16 0 0 24.2 31.56 0 0 -7.53 24.56 15.78 -24.56 15.6 0 -7.53 -31.56 0 0 47.16 24.92 0 0 -23.31 13.45 0 15.96 23.31 0 0z"/>
  <polygon class="fil5" points="829.19,41.71 805.16,41.71 784.36,76.49 763.56,41.71 737.38,41.71 770.73,97.65 770.73,129.39 795.66,129.39 795.66,98.01 "/>
  <path class="fil5" d="M835.11 129.39l41.6 0c29.04,0 48.95,-16.86 48.95,-43.75 0,-27.08 -19.9,-43.93 -48.95,-43.93l-41.6 0 0 87.68 0 0zm24.92 -19.72l0 -48.24 15.6 0c14.88,0 24.92,8.97 24.92,24.21 0,15.06 -10.04,24.03 -24.92,24.03l-15.6 0z"/>
  <polygon class="fil5" points="644.45,72.36 625.53,72.36 609.28,95.32 593.02,72.36 572.56,72.36 598.77,109.28 598.77,130.23 618.11,130.23 618.11,109.52 "/>
  <path class="fil1" d="M103.92 131.42l-0.18 -84.64 -19.73 0 -29.07 48.81 -29.77 -48.81 -19.73 0 0 84.64 22.15 0 0 -43.62 21.64 35.31 10.73 0 21.8 -36.52 0.18 44.83 21.98 0 0 0zm80.48 0l24.92 0 -37.56 -84.64 -23.54 0 -37.55 84.64 24.57 0 6.58 -16.45 35.83 0 6.75 16.45zm-35.48 -34.1l10.9 -27.17 10.9 27.17 -21.8 0 0 0zm124.09 34.1l27.87 0 -36.52 -47.08 34.61 -37.56 -26.31 0 -32.88 35.14 0 -35.14 -23.71 0 0 84.64 23.71 0 0 -21.12 9 -9.52 24.23 30.64 0 0zm57.81 -18.52l0 -15.41 37.56 0 0 -18 -37.56 0 0 -14.19 42.75 0 0 -18.52 -66.46 0 0 84.63 68.01 0 0 -18.51 -44.3 0 0 0z"/>
  <polygon class="fil1" points="968.95,111.33 968.95,95.37 1008.04,95.37 1008.04,76.72 968.95,76.72 968.95,62.02 1013.24,62.02 1013.24,42.83 944.38,42.83 944.38,130.52 1014.85,130.52 1014.85,111.33 "/>
  <path class="fil1" d="M715.6 130.52l26.54 0 -18.83 -27.44c10.76,-5.38 17.04,-14.88 17.04,-27.79 0,-20.08 -15.07,-32.46 -38.91,-32.46l-40.17 0 0 24.21 31.56 0 0 -7.53 24.57 15.78 -24.57 15.6 0 -7.53 -31.56 0 0 47.16 24.93 0 0 -23.31 13.44 0 15.96 23.31 0 0z"/>
  <polygon class="fil1" points="834.82,42.83 810.79,42.83 789.99,77.62 769.19,42.83 743.01,42.83 776.37,98.78 776.37,130.52 801.29,130.52 801.29,99.14 "/>
  <path class="fil1" d="M840.74 130.52l41.6 0c29.05,0 48.95,-16.86 48.95,-43.75 0,-27.08 -19.9,-43.94 -48.95,-43.94l-41.6 0 0 87.69 0 0zm24.92 -19.73l0 -48.23 15.6 0c14.89,0 24.93,8.96 24.93,24.2 0,15.07 -10.04,24.03 -24.93,24.03l-15.6 0z"/>
  <polygon class="fil6" points="576.15,132.24 576.03,74.4 562.54,74.4 542.67,107.75 522.33,74.4 508.84,74.4 508.84,132.24 523.98,132.24 523.98,102.43 538.77,126.56 546.1,126.56 561.01,101.6 561.12,132.24 576.15,132.24 "/>
  <polygon class="fil6" points="650.09,72.36 631.17,72.36 614.91,95.32 598.66,72.36 578.2,72.36 604.4,109.28 604.4,130.23 623.74,130.23 623.74,109.52 "/>
  <g>
   <path class="fil4 str2" d="M409.69 74.21c21.74,-8.52 47,-12.75 71.98,-8.72"/>
  </g>
 </g>
</svg>
